<svg width="120" height="119" viewBox="0 0 120 119" fill="none" xmlns="http://www.w3.org/2000/svg">
<path d="M60.4676 14.5518C66.0264 14.5518 71.3085 15.6923 76.1008 17.7483C78.1151 18.6125 80.4486 17.6801 81.3128 15.6658C82.177 13.6515 81.2446 11.318 79.2303 10.4538C73.4675 7.98135 67.1221 6.61426 60.4676 6.61426C34.5746 6.61426 13.5078 27.2779 12.8581 53.0145L0.280021 71.8815C-0.35143 72.8287 -0.545762 74.0014 -0.253578 75.1017C0.0386057 76.2019 0.789155 77.1237 1.80733 77.6328L10.4595 81.9589L11.2978 89.5036C12.0614 96.3758 17.8457 101.411 23.4015 104.158C28.1882 106.524 31.3635 110.229 31.3635 113.771V116.416C31.3635 118.608 33.1403 120.385 35.3322 120.385C37.5241 120.385 39.301 118.608 39.301 116.416V113.771C39.301 105.621 32.6117 99.856 26.9188 97.042C22.2901 94.754 19.5048 91.4896 19.1868 88.627L18.11 78.9364C17.9614 77.5984 17.1445 76.427 15.9404 75.8249L9.37819 72.5438L20.1136 56.4407C20.5482 55.7888 20.7801 55.0228 20.7801 54.2393C20.7801 32.3205 38.5488 14.5518 60.4676 14.5518Z" fill="#161616"/>
<path d="M102.842 65.5139C100.783 64.7607 98.5041 65.8188 97.751 67.8772C94.9536 75.5222 89.8665 82.0738 83.3154 86.6948C79.7033 89.2428 75.6498 91.2012 71.2937 92.4332C69.1846 93.0298 67.9584 95.2232 68.5549 97.3323C69.1515 99.4415 71.3449 100.668 73.454 100.071C76.2985 99.2666 79.0341 98.2048 81.6343 96.9128V116.416C81.6343 118.608 83.4112 120.385 85.603 120.385C87.7949 120.385 89.5718 118.608 89.5718 116.416V91.9392C96.6121 86.4968 102.088 79.1234 105.205 70.6047C105.958 68.5463 104.9 66.267 102.842 65.5139Z" fill="#161616"/>
<path d="M113.385 17.1976C113.385 12.8138 109.832 9.26009 105.448 9.26009C101.064 9.26009 97.5104 12.8138 97.5104 17.1976C97.5104 17.4164 97.5192 17.6332 97.5366 17.8476L87.0102 25.1351H67.0833C64.8914 25.1351 63.1145 26.912 63.1145 29.1038C63.1145 31.2957 64.8914 33.0726 67.0833 33.0726H88.25C89.0572 33.0726 89.8453 32.8264 90.509 32.3669L102.053 24.3747C103.083 24.8623 104.233 25.1351 105.448 25.1351C109.832 25.1351 113.385 21.5814 113.385 17.1976Z" fill="#161616"/>
<path d="M105.448 38.3643C109.832 38.3643 113.385 41.918 113.385 46.3018C113.385 50.6855 109.832 54.2393 105.448 54.2393C102.51 54.2393 99.9447 52.643 98.5723 50.2705H67.0833C64.8914 50.2705 63.1145 48.4936 63.1145 46.3018C63.1145 44.1099 64.8914 42.333 67.0833 42.333H98.5723C99.9447 39.9605 102.51 38.3643 105.448 38.3643Z" fill="#161616"/>
</svg>
