<svg width="332" height="280" viewBox="0 0 332 280" fill="none" xmlns="http://www.w3.org/2000/svg">
<path d="M301.817 220.15C301.817 219.762 301.758 219.398 301.64 219.009L274.264 143.048C273.816 141.778 272.602 140.943 271.281 140.943L257.747 140.931L252.795 125.278C252.406 124.043 251.286 123.173 249.989 123.078C234.804 121.938 220.291 122.632 206.862 125.16C205.141 125.489 203.997 127.148 204.328 128.865C204.658 130.582 206.32 131.723 208.041 131.393C220.326 129.1 233.543 128.383 247.371 129.253L252.347 144.965C252.347 145.024 252.382 145.06 252.382 145.118L269.159 198.252C231.278 192.83 196.605 198.828 165.964 216.046C135.336 198.828 100.648 192.831 62.7694 198.252L79.5463 145.118C79.5817 145.06 79.5817 145.024 79.5817 144.965L84.5568 129.218C98.4688 128.312 111.756 129.065 124.004 131.382C125.726 131.711 127.388 130.57 127.718 128.853C128.049 127.136 126.905 125.478 125.184 125.148C111.755 122.62 97.1712 121.902 81.939 123.043C80.6422 123.137 79.5221 124.008 79.1331 125.242L74.1814 140.896H63.1343C61.8374 140.896 60.6584 141.707 60.175 142.919L30.394 218.94C30.2408 219.34 30.1818 219.728 30.1818 220.116V220.175V231.677C30.1818 233.43 31.5966 234.841 33.3533 234.841H298.624C300.369 234.841 301.796 233.43 301.796 231.677L301.817 220.15ZM273.238 205.367C274.323 205.543 275.443 205.155 276.162 204.308C276.881 203.462 277.129 202.321 276.799 201.262L259.751 147.304H269.018L294.095 216.915H178.202C206.687 203.402 238.59 199.522 273.238 205.367ZM65.3732 147.317H72.2229L55.175 201.275C54.8449 202.334 55.0807 203.474 55.8117 204.321C56.5308 205.168 57.6509 205.556 58.7355 205.38C93.3843 199.535 125.289 203.427 153.772 216.94L38.0308 216.929L65.3732 147.317ZM36.5471 228.514V223.28H295.45V228.514H36.5471ZM129.875 112.94C129.722 113.81 129.64 114.716 129.64 115.645C129.64 123.23 135.098 129.558 142.313 130.91C142.703 132.627 143.398 134.25 144.365 135.661V151.95L133.2 154.926C131.573 150.374 127.199 147.093 122.059 147.093C115.539 147.093 110.257 152.397 110.257 158.866C110.257 165.334 115.574 170.638 122.059 170.638C127.706 170.638 132.445 166.663 133.589 161.371L148.35 157.431C149.741 157.066 150.708 155.808 150.708 154.361V140.695C152.252 141.295 153.938 141.624 155.683 141.624C158.371 141.624 160.906 140.836 163.016 139.484V161.371C161.083 161.912 159.302 162.935 157.852 164.381C153.266 168.956 153.266 176.46 157.852 181.058C160.081 183.281 163.04 184.516 166.211 184.516C169.383 184.516 172.342 183.281 174.57 181.058C179.156 176.448 179.156 168.98 174.57 164.405C173.12 162.935 171.34 161.912 169.382 161.394V139.508C171.493 140.86 174.028 141.648 176.716 141.648C178.461 141.648 180.123 141.319 181.667 140.719V154.385C181.667 155.832 182.634 157.067 184.025 157.455L198.786 161.395C199.93 166.699 204.669 170.662 210.316 170.662C216.836 170.662 222.118 165.358 222.118 158.889C222.118 152.421 216.801 147.117 210.316 147.117C205.188 147.117 200.814 150.398 199.175 154.949L188.01 151.974V135.685C188.977 134.274 189.696 132.674 190.062 130.934C197.277 129.581 202.771 123.254 202.771 115.669C202.771 114.763 202.677 113.857 202.535 112.964C209.208 109.647 213.488 102.908 213.735 95.0519V94.8755C213.5 87.0193 209.208 80.2451 202.535 76.9287C202.688 76.0232 202.771 75.1529 202.771 74.2238C202.771 66.6382 197.277 60.3108 190.062 58.9583C188.812 52.7839 183.318 48.1738 176.775 48.1738C172.554 48.1738 168.781 50.1026 166.246 53.1133C163.747 50.1025 159.939 48.1738 155.742 48.1738C149.186 48.1738 143.704 52.7839 142.337 58.9466C135.121 60.2991 129.663 66.6264 129.663 74.212C129.663 75.1176 129.757 76.0232 129.898 76.917C123.261 80.2337 118.946 86.9723 118.698 94.8638V95.0755C118.911 102.885 123.226 109.623 129.875 112.94ZM122.082 164.321C119.064 164.321 116.624 161.887 116.624 158.876C116.624 155.865 119.064 153.431 122.082 153.431C125.101 153.431 127.541 155.865 127.541 158.876C127.553 161.887 125.101 164.321 122.082 164.321ZM210.4 153.454C213.419 153.454 215.859 155.889 215.859 158.899C215.859 161.91 213.419 164.345 210.4 164.345C207.382 164.345 204.942 161.91 204.942 158.899C204.93 155.9 207.382 153.454 210.4 153.454ZM170.102 176.611C167.991 178.716 164.513 178.716 162.403 176.611C160.293 174.471 160.293 171.036 162.403 168.908C163.429 167.885 164.784 167.308 166.27 167.308C167.72 167.308 169.111 167.885 170.137 168.908C172.212 171.037 172.212 174.471 170.102 176.611ZM134.674 81.7724C135.523 81.5019 136.219 80.9021 136.572 80.0906C136.938 79.2792 136.961 78.3736 136.631 77.5621C136.207 76.5036 135.995 75.3628 135.995 74.1867C135.995 70.0352 138.801 66.5069 142.609 65.3896C144.082 69.8118 148.28 73.0104 153.231 73.0104C154.976 73.0104 156.403 71.5991 156.403 69.8467C156.403 68.1062 154.988 66.683 153.231 66.683C150.543 66.683 148.374 64.5191 148.374 61.861C148.374 57.8272 151.663 54.5458 155.707 54.5458C159.751 54.5458 163.04 57.8269 163.04 61.861V84.712C163.04 86.4526 164.455 87.8757 166.212 87.8757C167.957 87.8757 169.383 86.4644 169.383 84.712V61.861C169.383 57.8272 172.673 54.5458 176.717 54.5458C180.76 54.5458 184.05 57.8269 184.05 61.861C184.05 64.5072 181.881 66.683 179.192 66.683C177.448 66.683 176.021 68.0943 176.021 69.8467C176.021 71.5873 177.436 73.0104 179.192 73.0104C184.144 73.0104 188.306 69.8233 189.815 65.3896C193.646 66.5069 196.429 70.0235 196.429 74.1867C196.429 75.3628 196.217 76.5036 195.769 77.5856C195.439 78.3971 195.462 79.3026 195.863 80.1141C196.229 80.9021 196.924 81.5019 197.761 81.7724C203.409 83.5835 207.181 88.7582 207.393 94.9327C207.158 101.107 203.385 106.258 197.761 108.058C196.912 108.328 196.252 108.928 195.863 109.716C195.498 110.504 195.474 111.433 195.769 112.245C196.193 113.327 196.429 114.467 196.429 115.643C196.429 119.795 193.623 123.347 189.815 124.464C188.341 120.042 184.144 116.843 179.192 116.843C177.448 116.843 176.021 118.255 176.021 120.007C176.021 121.747 177.436 123.171 179.192 123.171C181.88 123.171 184.05 125.335 184.05 127.993C184.05 132.026 180.761 135.308 176.717 135.308C172.673 135.308 169.383 132.027 169.383 127.993V109.211C169.383 107.47 167.969 106.047 166.212 106.047C164.467 106.047 163.04 107.458 163.04 109.211V127.993C163.04 132.026 159.751 135.308 155.707 135.308C151.663 135.308 148.374 132.027 148.374 127.993C148.374 125.346 150.543 123.171 153.231 123.171C154.976 123.171 156.403 121.759 156.403 120.007C156.403 118.266 154.988 116.843 153.231 116.843C148.28 116.843 144.118 120.03 142.609 124.464C138.801 123.347 135.995 119.83 135.995 115.643C135.995 114.467 136.207 113.327 136.631 112.268C136.961 111.457 136.938 110.527 136.572 109.74C136.207 108.928 135.511 108.328 134.674 108.058C129.062 106.247 125.254 101.107 125.018 94.9327C125.254 88.723 129.062 83.5837 134.674 81.7724ZM142.338 107.811C138.872 104.377 136.962 99.8014 136.962 94.921C136.962 90.0406 138.86 85.4654 142.338 82.0076C143.576 80.7727 145.592 80.7727 146.83 82.0076C148.068 83.2425 148.068 85.2535 146.83 86.4885C144.566 88.7465 143.328 91.7221 143.328 94.921C143.328 98.0847 144.566 101.06 146.83 103.318C148.068 104.553 148.068 106.564 146.83 107.799C146.193 108.434 145.38 108.728 144.566 108.728C143.788 108.752 142.974 108.422 142.338 107.811ZM185.655 103.33C190.3 98.6959 190.3 91.1338 185.655 86.5002C184.417 85.2653 184.417 83.2543 185.655 82.0193C186.893 80.7844 188.909 80.7844 190.147 82.0193C197.268 89.1581 197.268 100.719 190.147 107.822C189.51 108.457 188.696 108.751 187.883 108.751C187.069 108.751 186.256 108.446 185.619 107.822C184.417 106.576 184.417 104.565 185.655 103.33ZM163.077 98.3313V91.6748C163.077 89.9342 164.492 88.5111 166.249 88.5111C167.994 88.5111 169.42 89.9224 169.42 91.6748V98.3313C169.42 100.072 168.005 101.495 166.249 101.495C164.492 101.495 163.077 100.072 163.077 98.3313Z" fill="url(#paint0_linear_335_895)"/>
<defs>
<linearGradient id="paint0_linear_335_895" x1="195.104" y1="88.8466" x2="30.3276" y2="246.23" gradientUnits="userSpaceOnUse">
<stop stop-color="#F7AEF3"/>
<stop offset="1" stop-color="#23F6F0"/>
</linearGradient>
</defs>
</svg>
