<svg width="126" height="130" viewBox="0 0 126 130" fill="none" xmlns="http://www.w3.org/2000/svg">
<path fill-rule="evenodd" clip-rule="evenodd" d="M101.391 106.882L109.629 128.6C110.003 129.598 111.251 129.349 111.501 128.6L115.246 119.987C115.37 119.738 115.495 119.488 115.745 119.363L124.482 115.619C125.231 115.369 125.481 114.121 124.482 113.747L102.639 105.509C101.89 105.259 101.141 106.008 101.391 106.882Z" fill="#F7AEF3"/>
<path d="M95.3992 98.1451C95.0248 97.7706 94.4007 97.7706 93.9014 98.1451C93.527 98.5195 93.527 99.2684 93.9014 99.6429L98.1452 103.762C98.5196 104.261 99.2685 104.261 99.643 103.762C100.017 103.387 100.017 102.763 99.643 102.264L95.3992 98.1451Z" fill="#F7AEF3"/>
<path d="M104.012 95.7731C103.762 95.2738 103.263 94.8994 102.639 95.0242C102.14 95.2738 101.765 95.7731 101.89 96.3972L103.013 100.267C103.138 100.891 103.762 101.14 104.262 101.015C104.886 100.891 105.135 100.267 105.011 99.7672L104.012 95.7731Z" fill="#F7AEF3"/>
<path d="M92.2796 106.258C91.7804 106.008 91.1563 106.383 91.0315 107.007C90.9067 107.506 91.1563 108.13 91.7804 108.255L95.6497 109.253C96.2738 109.503 96.773 109.129 97.0227 108.505C97.1475 108.005 96.773 107.381 96.2738 107.256L92.2796 106.258Z" fill="#F7AEF3"/>
<rect width="108" height="108" rx="52" fill="#F7AEF3"/>
<path fill-rule="evenodd" clip-rule="evenodd" d="M41.7368 41.0377C41.7368 30.7553 50.5616 22.6465 61.1591 22.6465H70.9697C71.7269 22.6465 72.4761 22.681 73.1539 22.821C73.8492 22.9646 74.6154 23.2482 75.261 23.8552C76.5321 25.0502 76.6042 26.8119 76.6042 28.0747V34.5562C76.6042 35.8191 76.5321 37.5807 75.261 38.7758C74.6154 39.3828 73.8492 39.6663 73.1539 39.8099C72.4761 39.9499 71.7269 39.9844 70.9697 39.9844H61.1591C60.3344 39.9844 59.8997 40.5812 59.8997 41.0377V46.952H66.9303C67.9005 46.952 68.8271 47 69.63 47.1789C70.4318 47.3575 71.3789 47.7253 72.0648 48.5802C72.7686 49.4575 72.903 50.4767 72.8621 51.3183C72.8223 52.138 72.6063 53.0227 72.3376 53.9066L70.8603 58.7677C70.5564 59.7679 70.1019 61.0174 68.9639 61.8245C67.859 62.608 66.5286 62.6696 65.453 62.6696H59.8997V79.9266C59.8997 81.1894 59.8276 82.9511 58.5565 84.1461C57.9109 84.7531 57.1447 85.0367 56.4493 85.1803C55.7716 85.3203 55.0223 85.3548 54.2652 85.3548H47.3713C46.6141 85.3548 45.8649 85.3203 45.1871 85.1803C44.4918 85.0367 43.7256 84.7531 43.08 84.1461C41.8089 82.9511 41.7368 81.1894 41.7368 79.9266V62.6696H37.0303C36.2732 62.6696 35.524 62.6351 34.8462 62.4951C34.1509 62.3515 33.3847 62.0679 32.7391 61.4609C31.468 60.2659 31.3959 58.5043 31.3959 57.2414V52.3803C31.3959 51.1174 31.468 49.3558 32.7391 48.1607C33.3847 47.5537 34.1509 47.2702 34.8462 47.1266C35.524 46.9866 36.2732 46.952 37.0303 46.952H41.7368V41.0377ZM61.1591 27.0215C52.7196 27.0215 46.1118 33.4219 46.1118 41.0377V49.1395C46.1118 50.3477 45.1324 51.327 43.9243 51.327H37.0303C36.4414 51.327 36.0651 51.3545 35.8226 51.3943C35.793 51.595 35.7709 51.9046 35.7709 52.3803V57.2414C35.7709 57.717 35.793 58.0267 35.8226 58.2274C36.0651 58.2672 36.4414 58.2946 37.0303 58.2946H43.9243C45.1324 58.2946 46.1118 59.274 46.1118 60.4821V79.9266C46.1118 80.4022 46.134 80.7119 46.1635 80.9126C46.4061 80.9524 46.7824 80.9798 47.3713 80.9798H54.2652C54.8541 80.9798 55.2304 80.9524 55.4729 80.9125C55.5025 80.7119 55.5247 80.4022 55.5247 79.9266V60.4821C55.5247 59.274 56.504 58.2946 57.7122 58.2946H65.453C65.9473 58.2946 66.2318 58.2703 66.402 58.2388C66.4658 58.1112 66.555 57.8885 66.6744 57.4956L68.1516 52.6345C68.3191 52.0834 68.4123 51.6885 68.4578 51.4088C68.1246 51.3589 67.6368 51.327 66.9303 51.327H57.7122C56.504 51.327 55.5247 50.3477 55.5247 49.1395V41.0377C55.5247 37.9146 58.1764 35.6094 61.1591 35.6094H70.9697C71.5586 35.6094 71.9349 35.582 72.1775 35.5422C72.2071 35.3415 72.2292 35.0319 72.2292 34.5562V28.0747C72.2292 27.5991 72.207 27.2894 72.1775 27.0888C71.9349 27.0489 71.5586 27.0215 70.9697 27.0215H61.1591Z" fill="#161616"/>
</svg>
