<svg width="141" height="124" viewBox="0 0 141 124" fill="none" xmlns="http://www.w3.org/2000/svg">
<path fill-rule="evenodd" clip-rule="evenodd" d="M24.304 95.112L5.458 108.69C4.5904 109.31 5.15458 110.451 5.94257 110.499L15.2306 111.887C15.5041 111.943 15.7775 111.999 15.9627 112.207L21.8409 119.678C22.2759 120.336 23.5462 120.255 23.6494 119.193L25.9532 95.9623C26.0005 95.1743 25.0833 94.6448 24.304 95.112Z" fill="#23F6F0"/>
<path d="M31.1926 87.0636C31.4573 86.605 31.2958 86.0021 30.8049 85.6168C30.3463 85.352 29.6229 85.5459 29.3581 86.0045L26.4779 91.1697C26.0926 91.6606 26.2864 92.384 26.8656 92.6165C27.3242 92.8812 27.927 92.7197 28.3123 92.2288L31.1926 87.0636Z" fill="#23F6F0"/>
<path d="M35.7125 94.7689C36.1301 94.3986 36.3626 93.8194 36.0805 93.2489C35.7102 92.8312 35.131 92.5988 34.5605 92.8809L31.1138 94.9674C30.5432 95.2495 30.4636 95.9169 30.7134 96.3669C30.9955 96.9374 31.6629 97.017 32.1129 96.7672L35.7125 94.7689Z" fill="#23F6F0"/>
<path d="M22.5478 86.1498C22.6597 85.6029 22.1365 85.097 21.5014 85.138C20.9868 85.1467 20.4486 85.5493 20.4896 86.1844L20.5265 90.1804C20.4469 90.8478 20.9378 91.2331 21.6052 91.3127C22.1198 91.3041 22.6257 90.7809 22.617 90.2663L22.5478 86.1498Z" fill="#23F6F0"/>
<rect x="33" width="108" height="108" rx="52" fill="#23F6F0"/>
<path fill-rule="evenodd" clip-rule="evenodd" d="M71.6875 53.9993C71.6875 45.5425 78.5432 38.6868 87 38.6868C95.4569 38.6868 102.313 45.5425 102.313 53.9993C102.313 62.4562 95.4569 69.3119 87 69.3119C78.5432 69.3119 71.6875 62.4562 71.6875 53.9993ZM87 43.0618C80.9594 43.0618 76.0625 47.9587 76.0625 53.9993C76.0625 60.04 80.9594 64.9369 87 64.9369C93.0406 64.9369 97.9375 60.04 97.9375 53.9993C97.9375 47.9587 93.0406 43.0618 87 43.0618Z" fill="#161616"/>
<path d="M103.064 40.8743C104.675 40.8743 105.981 39.5685 105.981 37.9577C105.981 36.3469 104.675 35.041 103.064 35.041H103.038C101.427 35.041 100.122 36.3469 100.122 37.9577C100.122 39.5685 101.427 40.8743 103.038 40.8743H103.064Z" fill="#161616"/>
<path fill-rule="evenodd" clip-rule="evenodd" d="M87.1668 24.1035C93.5563 24.1035 98.575 24.1034 102.493 24.6302C106.509 25.1701 109.694 26.2989 112.197 28.802C114.7 31.3051 115.829 34.4908 116.369 38.5061C116.896 42.4244 116.896 47.443 116.896 53.8325V54.1661C116.896 60.5556 116.896 65.5743 116.369 69.4926C115.829 73.5079 114.7 76.6936 112.197 79.1967C109.694 81.6998 106.509 82.8286 102.493 83.3685C98.575 83.8953 93.5564 83.8952 87.1669 83.8952H86.8333C80.4438 83.8952 75.425 83.8953 71.5068 83.3685C67.4915 82.8286 64.3058 81.6998 61.8027 79.1967C59.2996 76.6936 58.1708 73.5079 57.6309 69.4926C57.1041 65.5743 57.1041 60.5557 57.1042 54.1661V53.8326C57.1041 47.443 57.1041 42.4244 57.6309 38.5061C58.1708 34.4908 59.2996 31.3051 61.8027 28.802C64.3058 26.2989 67.4915 25.1701 71.5068 24.6302C75.425 24.1034 80.4436 24.1035 86.8332 24.1035H87.1668ZM72.0897 28.9662C68.5596 29.4408 66.451 30.3409 64.8963 31.8956C63.3416 33.4503 62.4415 35.5589 61.9669 39.089C61.4838 42.6821 61.4792 47.4066 61.4792 53.9993C61.4792 60.5921 61.4838 65.3166 61.9669 68.9097C62.4415 72.4398 63.3416 74.5484 64.8963 76.1031C66.451 77.6578 68.5596 78.5579 72.0897 79.0325C75.6828 79.5155 80.4073 79.5202 87 79.5202C93.5928 79.5202 98.3173 79.5155 101.91 79.0325C105.44 78.5579 107.549 77.6578 109.104 76.1031C110.658 74.5484 111.559 72.4398 112.033 68.9097C112.516 65.3166 112.521 60.5921 112.521 53.9993C112.521 47.4066 112.516 42.6821 112.033 39.089C111.559 35.5589 110.658 33.4503 109.104 31.8956C107.549 30.3409 105.44 29.4408 101.91 28.9662C98.3173 28.4832 93.5928 28.4785 87 28.4785C80.4073 28.4785 75.6828 28.4832 72.0897 28.9662Z" fill="#161616"/>
</svg>
