<svg width="138" height="141" viewBox="0 0 138 141" fill="none" xmlns="http://www.w3.org/2000/svg">
<rect x="30" y="16" width="108" height="108" rx="52" fill="#23F6F0"/>
<path fill-rule="evenodd" clip-rule="evenodd" d="M52.6458 47.3955C52.6458 42.563 56.5633 38.6455 61.3958 38.6455C66.2283 38.6455 70.1458 42.563 70.1458 47.3955C70.1458 52.228 66.2283 56.1455 61.3958 56.1455C56.5633 56.1455 52.6458 52.228 52.6458 47.3955ZM61.3958 43.0205C58.9795 43.0205 57.0208 44.9793 57.0208 47.3955C57.0208 49.8118 58.9795 51.7705 61.3958 51.7705C63.812 51.7705 65.7708 49.8118 65.7708 47.3955C65.7708 44.9793 63.812 43.0205 61.3958 43.0205Z" fill="#161616"/>
<path fill-rule="evenodd" clip-rule="evenodd" d="M60.5361 60.5205H62.2555C63.5179 60.5204 64.6753 60.5202 65.6168 60.6468C66.6536 60.7862 67.7495 61.1142 68.6508 62.0155C69.5521 62.9168 69.8801 64.0127 70.0195 65.0495C70.1461 65.991 70.146 67.1485 70.1458 68.4108V93.4635C70.146 94.7259 70.1461 95.8833 70.0195 96.8249C69.8801 97.8617 69.5521 98.9576 68.6508 99.8589C67.7495 100.76 66.6536 101.088 65.6168 101.228C64.6753 101.354 63.5179 101.354 62.2555 101.354H60.5361C59.2737 101.354 58.1163 101.354 57.1748 101.228C56.138 101.088 55.0421 100.76 54.1408 99.8589C53.2395 98.9576 52.9115 97.8617 52.7721 96.8249C52.6455 95.8834 52.6456 94.7259 52.6458 93.4635V68.4108C52.6456 67.1485 52.6455 65.991 52.7721 65.0495C52.9115 64.0127 53.2395 62.9168 54.1408 62.0155C55.0421 61.1142 56.138 60.7862 57.1748 60.6468C58.1163 60.5202 59.2737 60.5204 60.5361 60.5205ZM57.2344 65.1091L57.2415 65.1051C57.2471 65.1022 57.2568 65.0975 57.2715 65.0914C57.3351 65.0653 57.4761 65.0207 57.7577 64.9828C58.3723 64.9002 59.2299 64.8955 60.6666 64.8955H62.125C63.5617 64.8955 64.4193 64.9002 65.0339 64.9828C65.3155 65.0207 65.4565 65.0653 65.5201 65.0914C65.5348 65.0975 65.5445 65.1022 65.5501 65.1051L65.5572 65.1091L65.5612 65.1162C65.5642 65.1219 65.5689 65.1315 65.5749 65.1463C65.6011 65.2098 65.6457 65.3508 65.6835 65.6325C65.7662 66.2471 65.7708 67.1046 65.7708 68.5414V93.333C65.7708 94.7698 65.7662 95.6273 65.6835 96.2419C65.6457 96.5236 65.6011 96.6646 65.5749 96.7281C65.5689 96.7428 65.5642 96.7525 65.5612 96.7582L65.5572 96.7653L65.5501 96.7693C65.5445 96.7722 65.5348 96.7769 65.5201 96.783C65.4565 96.8091 65.3155 96.8537 65.0339 96.8916C64.4193 96.9742 63.5617 96.9789 62.125 96.9789H60.6666C59.2299 96.9789 58.3723 96.9742 57.7577 96.8916C57.4761 96.8537 57.3351 96.8091 57.2715 96.783C57.2568 96.7769 57.2471 96.7722 57.2415 96.7693L57.2344 96.7653L57.2304 96.7582C57.2275 96.7525 57.2227 96.7428 57.2167 96.7281C57.1905 96.6646 57.1459 96.5236 57.1081 96.2419C57.0254 95.6273 57.0208 94.7698 57.0208 93.333V68.5414C57.0208 67.1046 57.0254 66.2471 57.1081 65.6325C57.1459 65.3508 57.1905 65.2098 57.2167 65.1463C57.2227 65.1315 57.2275 65.1219 57.2304 65.1162L57.2344 65.1091Z" fill="#161616"/>
<path fill-rule="evenodd" clip-rule="evenodd" d="M82.4111 60.5205C83.2557 60.5205 86.6573 60.5204 87.303 60.5795C88.0013 60.6435 88.7617 60.7906 89.4942 61.2191C90.2503 61.6615 90.8798 62.291 91.3222 63.0471L91.3572 63.108C93.6606 61.4815 96.441 60.5212 99.4488 60.5212C107.31 60.5212 115.354 67.2127 115.354 75.8337L115.35 92.0075C115.35 93.2696 115.35 94.4268 115.223 95.3681C115.084 96.4047 114.756 97.5003 113.854 98.4013C112.953 99.3024 111.857 99.6303 110.821 99.7696C109.879 99.8962 108.722 99.896 107.46 99.8959H105.744C104.482 99.896 103.324 99.8962 102.383 99.7696C101.346 99.6302 100.25 99.3022 99.349 98.4009C98.4477 97.4996 98.1197 96.4037 97.9803 95.3669C97.8537 94.4254 97.8539 93.2679 97.854 92.0055L97.854 78.75C97.854 77.4156 96.8669 76.5625 95.9229 76.5625C94.4143 76.5625 93.6035 77.141 93.0461 78.0665C92.3908 79.1545 92.021 80.8754 92.021 83.125L92.0209 93.4637C92.021 94.726 92.0211 95.8834 91.8945 96.8249C91.7551 97.8617 91.4272 98.9576 90.5258 99.8589C89.6245 100.76 88.5287 101.088 87.4919 101.228C86.5503 101.354 85.3929 101.354 84.1305 101.354H82.4111C81.1487 101.354 79.9913 101.354 79.0498 101.228C78.013 101.088 76.9171 100.76 76.0158 99.8589C75.1145 98.9576 74.7865 97.8617 74.6471 96.8249C74.5205 95.8834 74.5206 94.7259 74.5208 93.4635V68.4108C74.5206 67.1485 74.5205 65.991 74.6471 65.0495C74.7865 64.0127 75.1145 62.9168 76.0158 62.0155C76.9171 61.1142 78.013 60.7862 79.0498 60.6468C79.9913 60.5202 81.1487 60.5204 82.4111 60.5205ZM82.5416 64.8955C81.1048 64.8955 80.2473 64.9002 79.6327 64.9828C79.4354 64.9751 79.0292 65.0943 78.9831 65.6324C78.9004 66.2471 78.8958 67.1046 78.8958 68.5413V93.333C78.8958 94.7698 78.9004 95.6273 78.9831 96.2419C79.0183 96.5976 79.4308 96.8232 79.6327 96.8916C80.2473 96.9742 81.1048 96.9788 82.5416 96.9788H84C85.4368 96.9788 86.2943 96.9742 86.9089 96.8916C87.1096 96.8409 87.5205 96.64 87.5585 96.2419C87.6412 95.6273 87.6458 94.7698 87.6458 93.333L87.6459 83.125C87.646 80.5421 88.0462 77.8881 89.2983 75.8092C90.6483 73.5678 92.8822 72.1875 95.9229 72.1875C99.5282 72.1875 102.229 75.252 102.229 78.75V91.875C102.229 93.3118 102.234 94.1693 102.316 94.7839C102.316 95.2449 102.595 95.3222 102.812 95.3825C102.87 95.3984 102.923 95.4132 102.966 95.4336C103.581 95.5162 104.438 95.5209 105.875 95.5209L107.33 95.5209C108.766 95.5209 109.623 95.5162 110.238 95.4336C110.44 95.3586 110.853 95.1236 110.887 94.7841C110.97 94.1697 110.975 93.3124 110.975 91.8759L110.979 75.8332C110.979 69.957 105.235 64.8962 99.4488 64.8962C96.3061 64.8962 93.4626 66.4328 91.5744 68.9148C91.006 69.662 90.0243 69.9631 89.1347 69.6632C88.245 69.3633 87.646 68.5292 87.6459 67.5904C87.6459 66.631 87.6438 66.0592 87.6051 65.6375C87.5812 65.1963 87.1276 64.9862 86.9039 64.9363C86.4822 64.8976 85.9104 64.8955 84.9509 64.8955H82.5416Z" fill="#161616"/>
<path fill-rule="evenodd" clip-rule="evenodd" d="M30.377 116.391L8.65889 124.629C7.66035 125.003 7.90999 126.251 8.65889 126.501L17.2713 130.246C17.5209 130.37 17.7705 130.495 17.8953 130.745L21.6399 139.482C21.8895 140.231 23.1377 140.481 23.5121 139.482L31.75 117.639C31.9997 116.89 31.2508 116.141 30.377 116.391Z" fill="#23F6F0"/>
<path d="M39.1137 110.4C39.4881 110.026 39.4881 109.402 39.1137 108.902C38.7392 108.528 37.9903 108.528 37.6159 108.902L33.4969 113.146C32.9977 113.521 32.9977 114.27 33.4969 114.644C33.8714 115.018 34.4955 115.018 34.9947 114.644L39.1137 110.4Z" fill="#23F6F0"/>
<path d="M41.4857 119.012C41.985 118.763 42.3594 118.263 42.2346 117.639C41.985 117.14 41.4857 116.766 40.8616 116.89L36.9923 118.014C36.3682 118.139 36.1186 118.763 36.2434 119.262C36.3682 119.886 36.9923 120.136 37.4916 120.011L41.4857 119.012Z" fill="#23F6F0"/>
<path d="M30.9999 107.28C31.2496 106.78 30.8751 106.156 30.251 106.031C29.7518 105.907 29.1277 106.156 29.0029 106.78L28.0043 110.65C27.7547 111.274 28.1291 111.773 28.7532 112.023C29.2525 112.148 29.8766 111.773 30.0014 111.274L30.9999 107.28Z" fill="#23F6F0"/>
</svg>
