<svg width="94" height="26" viewBox="0 0 94 26" fill="none" xmlns="http://www.w3.org/2000/svg">
<g clip-path="url(#clip0_335_674)">
<path d="M83.6415 21.534C83.9332 21.534 84.1697 21.2956 84.1697 21.0014C84.1697 20.7072 83.9332 20.4688 83.6415 20.4688C83.3498 20.4688 83.1133 20.7072 83.1133 21.0014C83.1133 21.2956 83.3498 21.534 83.6415 21.534Z" fill="#231F20"/>
<path d="M81.7344 23.4805C82.126 23.2203 82.2343 22.6892 81.9762 22.2943C81.7182 21.8993 81.1916 21.7901 80.7999 22.0503C80.4083 22.3105 80.3 22.8416 80.558 23.2366C80.8161 23.6315 81.3427 23.7407 81.7344 23.4805Z" fill="#231F20"/>
<path d="M78.444 24.6475C79.0096 24.6475 79.4682 24.1851 79.4682 23.6148C79.4682 23.0444 79.0096 22.582 78.444 22.582C77.8784 22.582 77.4199 23.0444 77.4199 23.6148C77.4199 24.1851 77.8784 24.6475 78.444 24.6475Z" fill="#231F20"/>
<path d="M75.5029 24.5433C76.1004 24.5433 76.5847 24.0548 76.5847 23.4523C76.5847 22.8498 76.1004 22.3613 75.5029 22.3613C74.9054 22.3613 74.421 22.8498 74.421 23.4523C74.421 24.0548 74.9054 24.5433 75.5029 24.5433Z" fill="#231F20"/>
<path d="M73.5375 23.0124C73.927 22.5962 73.9081 21.9405 73.4954 21.5477C73.0827 21.1549 72.4323 21.174 72.0429 21.5902C71.6534 22.0064 71.6722 22.6621 72.085 23.0549C72.4977 23.4477 73.148 23.4286 73.5375 23.0124Z" fill="#231F20"/>
<path d="M70.6204 21.1419C71.0904 21.1419 71.4713 20.7577 71.4713 20.2838C71.4713 19.8099 71.0904 19.4258 70.6204 19.4258C70.1505 19.4258 69.7695 19.8099 69.7695 20.2838C69.7695 20.7577 70.1505 21.1419 70.6204 21.1419Z" fill="#231F20"/>
<path d="M69.2562 18.1854C69.5498 18.1854 69.7878 17.9454 69.7878 17.6493C69.7878 17.3533 69.5498 17.1133 69.2562 17.1133C68.9626 17.1133 68.7246 17.3533 68.7246 17.6493C68.7246 17.9454 68.9626 18.1854 69.2562 18.1854Z" fill="#231F20"/>
<path d="M76.8943 20.7C77.186 20.7 77.4225 20.4616 77.4225 20.1674C77.4225 19.8732 77.186 19.6348 76.8943 19.6348C76.6026 19.6348 76.3661 19.8732 76.3661 20.1674C76.3661 20.4616 76.6026 20.7 76.8943 20.7Z" fill="#231F20"/>
<path d="M74.8603 19.6628C75.0056 19.2131 74.762 18.7298 74.3161 18.5832C73.8701 18.4367 73.3909 18.6824 73.2455 19.1321C73.1002 19.5818 73.3439 20.0651 73.7898 20.2116C74.2357 20.3582 74.715 20.1124 74.8603 19.6628Z" fill="#231F20"/>
<path d="M71.6296 18.7315C72.1952 18.7315 72.6537 18.2691 72.6537 17.6988C72.6537 17.1284 72.1952 16.666 71.6296 16.666C71.064 16.666 70.6055 17.1284 70.6055 17.6988C70.6055 18.2691 71.064 18.7315 71.6296 18.7315Z" fill="#231F20"/>
<path d="M69.9207 16.3704C70.5182 16.3704 71.0026 15.882 71.0026 15.2794C71.0026 14.6769 70.5182 14.1885 69.9207 14.1885C69.3232 14.1885 68.8389 14.6769 68.8389 15.2794C68.8389 15.882 69.3232 16.3704 69.9207 16.3704Z" fill="#231F20"/>
<path d="M70.142 12.5017C70.1891 11.9314 69.7688 11.4306 69.2033 11.3831C68.6378 11.3356 68.1411 11.7594 68.0941 12.3297C68.047 12.9 68.4672 13.4008 69.0328 13.4483C69.5983 13.4958 70.0949 13.072 70.142 12.5017Z" fill="#231F20"/>
<path d="M69.3331 10.3128C69.803 10.3128 70.1839 9.92861 70.1839 9.45473C70.1839 8.98084 69.803 8.59668 69.3331 8.59668C68.8631 8.59668 68.4822 8.98084 68.4822 9.45473C68.4822 9.92861 68.8631 10.3128 69.3331 10.3128Z" fill="#231F20"/>
<path d="M70.5257 7.27232C70.8193 7.27232 71.0573 7.03232 71.0573 6.73626C71.0573 6.4402 70.8193 6.2002 70.5257 6.2002C70.2321 6.2002 69.9941 6.4402 69.9941 6.73626C69.9941 7.03232 70.2321 7.27232 70.5257 7.27232Z" fill="#231F20"/>
<path d="M73.3348 14.8602C73.6266 14.8602 73.863 14.6217 73.863 14.3276C73.863 14.0334 73.6266 13.7949 73.3348 13.7949C73.0431 13.7949 72.8066 14.0334 72.8066 14.3276C72.8066 14.6217 73.0431 14.8602 73.3348 14.8602Z" fill="#231F20"/>
<path d="M72.4602 12.4093C72.8995 12.2435 73.1223 11.7501 72.9579 11.3071C72.7935 10.8642 72.3041 10.6395 71.8649 10.8053C71.4257 10.9711 71.2029 11.4645 71.3672 11.9075C71.5316 12.3504 72.021 12.5751 72.4602 12.4093Z" fill="#231F20"/>
<path d="M71.9655 9.67095C72.5311 9.67095 72.9896 9.20857 72.9896 8.63821C72.9896 8.06784 72.5311 7.60547 71.9655 7.60547C71.3999 7.60547 70.9414 8.06784 70.9414 8.63821C70.9414 9.20857 71.3999 9.67095 71.9655 9.67095Z" fill="#231F20"/>
<path d="M72.7752 6.87334C73.3727 6.87334 73.8571 6.3849 73.8571 5.78238C73.8571 5.17985 73.3727 4.69141 72.7752 4.69141C72.1777 4.69141 71.6934 5.17985 71.6934 5.78238C71.6934 6.3849 72.1777 6.87334 72.7752 6.87334Z" fill="#231F20"/>
<path d="M75.0685 4.22734C75.5401 3.90891 75.6663 3.26532 75.3505 2.78984C75.0348 2.31436 74.3966 2.18704 73.925 2.50547C73.4535 2.82389 73.3273 3.46749 73.643 3.94297C73.9588 4.41845 74.597 4.54576 75.0685 4.22734Z" fill="#231F20"/>
<path d="M76.9261 2.54519C77.396 2.54519 77.777 2.16103 77.777 1.68715C77.777 1.21326 77.396 0.829102 76.9261 0.829102C76.4562 0.829102 76.0752 1.21326 76.0752 1.68715C76.0752 2.16103 76.4562 2.54519 76.9261 2.54519Z" fill="#231F20"/>
<path d="M79.7767 1.46764C80.0703 1.46764 80.3083 1.22763 80.3083 0.931573C80.3083 0.635512 80.0703 0.395508 79.7767 0.395508C79.4831 0.395508 79.2451 0.635512 79.2451 0.931573C79.2451 1.22763 79.4831 1.46764 79.7767 1.46764Z" fill="#231F20"/>
<path d="M81.7264 6.52524C82.0182 6.52524 82.2546 6.28677 82.2546 5.9926C82.2546 5.69843 82.0182 5.45996 81.7264 5.45996C81.4347 5.45996 81.1982 5.69843 81.1982 5.9926C81.1982 6.28677 81.4347 6.52524 81.7264 6.52524Z" fill="#231F20"/>
<path d="M84.7343 6.28911C85.1991 6.22598 85.5251 5.79485 85.4625 5.32614C85.3999 4.85743 84.9724 4.52864 84.5076 4.59176C84.0428 4.65488 83.7168 5.08602 83.7794 5.55473C83.8419 6.02344 84.2695 6.35223 84.7343 6.28911Z" fill="#231F20"/>
<path d="M87.5329 6.94536C88.0985 6.94536 88.557 6.48299 88.557 5.91262C88.557 5.34226 88.0985 4.87988 87.5329 4.87988C86.9673 4.87988 86.5088 5.34226 86.5088 5.91262C86.5088 6.48299 86.9673 6.94536 87.5329 6.94536Z" fill="#231F20"/>
<path d="M90.113 8.43682C90.7105 8.43682 91.1949 7.94838 91.1949 7.34585C91.1949 6.74333 90.7105 6.25488 90.113 6.25488C89.5155 6.25488 89.0311 6.74333 89.0311 7.34585C89.0311 7.94838 89.5155 8.43682 90.113 8.43682Z" fill="#231F20"/>
<path d="M92.4296 10.5414C92.9596 10.3368 93.2247 9.73769 93.0218 9.20326C92.8189 8.66884 92.2248 8.40147 91.6948 8.60608C91.1649 8.81069 90.8997 9.4098 91.1026 9.94423C91.3055 10.4787 91.8996 10.746 92.4296 10.5414Z" fill="#231F20"/>
<path d="M93.1497 13.1946C93.6196 13.1946 94.0006 12.8104 94.0006 12.3366C94.0006 11.8627 93.6196 11.4785 93.1497 11.4785C92.6798 11.4785 92.2988 11.8627 92.2988 12.3366C92.2988 12.8104 92.6798 13.1946 93.1497 13.1946Z" fill="#231F20"/>
<path d="M93.2445 15.8436C93.5381 15.8436 93.7761 15.6036 93.7761 15.3075C93.7761 15.0115 93.5381 14.7715 93.2445 14.7715C92.9509 14.7715 92.7129 15.0115 92.7129 15.3075C92.7129 15.6036 92.9509 15.8436 93.2445 15.8436Z" fill="#231F20"/>
<path d="M87.4463 10.2284C87.738 10.2284 87.9745 9.98989 87.9745 9.69573C87.9745 9.40156 87.738 9.16309 87.4463 9.16309C87.1546 9.16309 86.9181 9.40156 86.9181 9.69573C86.9181 9.98989 87.1546 10.2284 87.4463 10.2284Z" fill="#231F20"/>
<path d="M90.2876 12.2272C90.612 11.8856 90.6003 11.3435 90.2616 11.0164C89.9229 10.6893 89.3853 10.7011 89.061 11.0427C88.7366 11.3842 88.7482 11.9263 89.087 12.2534C89.4257 12.5805 89.9632 12.5688 90.2876 12.2272Z" fill="#231F20"/>
<path d="M91.1284 15.2569C91.694 15.2569 92.1525 14.7945 92.1525 14.2241C92.1525 13.6538 91.694 13.1914 91.1284 13.1914C90.5628 13.1914 90.1042 13.6538 90.1042 14.2241C90.1042 14.7945 90.5628 15.2569 91.1284 15.2569Z" fill="#231F20"/>
<path d="M91.6257 18.2435C92.2232 18.2435 92.7076 17.755 92.7076 17.1525C92.7076 16.55 92.2232 16.0615 91.6257 16.0615C91.0282 16.0615 90.5438 16.55 90.5438 17.1525C90.5438 17.755 91.0282 18.2435 91.6257 18.2435Z" fill="#231F20"/>
<path d="M91.998 20.6055C92.2859 20.1123 92.1228 19.4772 91.6337 19.1869C91.1447 18.8966 90.5149 19.0611 90.227 19.5543C89.9392 20.0475 90.1023 20.6826 90.5913 20.9728C91.0804 21.2631 91.7102 21.0986 91.998 20.6055Z" fill="#231F20"/>
<path d="M89.6486 23.5149C90.1185 23.5149 90.4995 23.1308 90.4995 22.6569C90.4995 22.183 90.1185 21.7988 89.6486 21.7988C89.1787 21.7988 88.7977 22.183 88.7977 22.6569C88.7977 23.1308 89.1787 23.5149 89.6486 23.5149Z" fill="#231F20"/>
<path d="M87.4055 25.1219C87.6991 25.1219 87.9371 24.8819 87.9371 24.5859C87.9371 24.2898 87.6991 24.0498 87.4055 24.0498C87.1119 24.0498 86.8739 24.2898 86.8739 24.5859C86.8739 24.8819 87.1119 25.1219 87.4055 25.1219Z" fill="#231F20"/>
<path d="M3.10799 2.68545C3.03326 2.60153 2.94325 2.53645 2.83795 2.49021C2.73265 2.44397 2.61376 2.41999 2.48299 2.41999C2.35221 2.41999 2.24182 2.45082 2.14331 2.51248C2.04481 2.57413 1.96838 2.65976 1.91403 2.77109C1.85969 2.88241 1.83081 3.01086 1.83081 3.15815C1.83081 3.30544 1.85799 3.43389 1.91403 3.54521C1.97008 3.65654 2.04651 3.74388 2.14331 3.80725C2.24012 3.87062 2.35561 3.90145 2.48299 3.90145C2.62056 3.90145 2.74284 3.87747 2.85323 3.82952C2.96363 3.78156 3.05364 3.70963 3.12497 3.61372L3.48673 3.91172C3.38313 4.05901 3.24216 4.17376 3.06723 4.25597C2.8906 4.33818 2.68679 4.37928 2.45581 4.37928C2.22484 4.37928 2.00744 4.3279 1.82572 4.22343C1.64399 4.12067 1.50133 3.97681 1.39943 3.79526C1.29752 3.61372 1.24487 3.40135 1.24487 3.15815C1.24487 2.91495 1.29582 2.70258 1.39943 2.51933C1.50303 2.33607 1.64399 2.19221 1.82572 2.08945C2.00744 1.98669 2.21634 1.93359 2.45581 1.93359C2.68 1.93359 2.87531 1.97127 3.04515 2.0432C3.21499 2.11685 3.35426 2.21961 3.46465 2.35148L3.10799 2.68374V2.68545Z" fill="#231F20"/>
<path d="M2.36754 5.54176C1.06318 5.54176 0 4.47134 0 3.1543C0 1.83726 1.06148 0.768555 2.36754 0.768555C3.67359 0.768555 4.73507 1.83897 4.73507 3.15601C4.73507 4.47305 3.67359 5.54347 2.36754 5.54347V5.54176ZM2.36754 1.20015C1.29756 1.20015 0.427991 2.07703 0.427991 3.15601C0.427991 4.23499 1.29756 5.11188 2.36754 5.11188C3.43751 5.11188 4.30708 4.23499 4.30708 3.15601C4.30708 2.07703 3.43751 1.20015 2.36754 1.20015Z" fill="#231F20"/>
<path d="M2.36719 26.0002V22.354H17.9311V26.0002H2.36719ZM11.9562 24.8596C10.3428 24.8596 8.87027 24.6489 7.53874 24.2259C6.20722 23.8029 5.14403 23.1435 4.34749 22.2443C3.55096 21.3469 3.15354 20.1994 3.15354 18.8036C3.15354 17.7246 3.38961 16.7741 3.86176 15.9503C4.33391 15.1265 4.97759 14.4449 5.79451 13.9054C6.61143 13.3659 7.54044 12.96 8.57815 12.6842C9.61586 12.4102 10.6994 12.2715 11.8322 12.2715C12.7748 12.2715 13.7123 12.3674 14.6464 12.5575C15.5789 12.7476 16.4229 13.0216 17.177 13.3813L15.9185 16.4247C15.3733 16.2569 14.7348 16.1233 14.0011 16.0291C13.2674 15.9332 12.5642 15.8869 11.8934 15.8869C10.7623 15.8869 9.75512 16.0257 8.87536 16.2997C7.9956 16.5737 7.30267 16.9505 6.79995 17.4249C6.29723 17.901 6.04587 18.4559 6.04587 19.0896C6.04587 19.7233 6.30232 20.2577 6.81693 20.7543C7.32984 21.251 8.03127 21.6432 8.92292 21.9275C9.81457 22.2118 10.8251 22.3557 11.9579 22.3557V24.8613L11.9562 24.8596Z" fill="#231F20"/>
<path d="M19.7432 26V0H22.9191V26H19.7432ZM22.9191 26V22.3537H26.6606V26H22.9191ZM26.6606 26V22.3537C26.8916 22.3537 27.053 22.5181 27.1481 22.8453C27.2432 23.1741 27.289 23.6125 27.289 24.1606C27.289 24.7087 27.2415 25.1539 27.1481 25.4931C27.053 25.8322 26.8916 26 26.6606 26Z" fill="#231F20"/>
<path d="M26.6596 26.0001C26.4287 26.0001 26.2673 25.8323 26.1722 25.4932C26.0771 25.1558 26.0312 24.7002 26.0312 24.1299C26.0312 23.5596 26.0788 23.1468 26.1722 22.83C26.2673 22.5131 26.4287 22.3538 26.6596 22.3538V26.0001ZM26.6596 26.0001V22.3538H32.1301C33.1356 22.3538 33.9898 22.2322 34.693 21.989C35.3961 21.7458 35.9294 21.4187 36.2962 21.006C36.6631 20.5932 36.8465 20.1342 36.8465 19.6273C36.8465 19.2899 36.7565 18.9405 36.5799 18.5808C36.4015 18.2212 36.0551 17.7879 35.5422 17.2809C35.0275 16.774 34.2684 16.1232 33.2612 15.3302C32.2558 14.5372 30.9141 13.5387 29.2361 12.3347L27.6634 11.1307L29.7711 8.37163L31.9722 10.0209C33.3343 11.0348 34.5248 11.9391 35.5422 12.7321C36.5578 13.525 37.3968 14.2803 38.0574 14.9997C38.7164 15.719 39.2089 16.4486 39.535 17.1867C39.8594 17.9266 40.0225 18.7401 40.0225 19.629C40.0225 20.982 39.6777 22.1346 38.9848 23.0852C38.2935 24.0357 37.3492 24.7601 36.1553 25.2568C34.9613 25.7535 33.6179 26.0018 32.1301 26.0018H26.6596V26.0001ZM27.6668 11.129V7.19674L41.281 0.856445V4.81956L27.6668 11.129Z" fill="#231F20"/>
<path d="M59.2985 22.3535H44.4258V25.9998H59.2985V22.3535Z" fill="#231F20"/>
<path d="M56.783 26.0001C56.7626 23.7377 56.3635 21.7202 55.5891 19.9441C54.8129 18.1681 53.7073 16.6883 52.2721 15.5049C50.8353 14.3214 49.1115 13.4959 47.1006 13.0318L47.8224 9.48145C50.2952 10.0518 52.4335 11.1033 54.2372 12.6362C56.0391 14.169 57.4386 16.0701 58.4356 18.3428C59.4308 20.6155 59.9403 23.1674 59.9607 26.0001H56.7847H56.783Z" fill="#231F20"/>
<path d="M47.0989 5.23253C46.5113 5.23253 46.0136 5.02701 45.6043 4.61425C45.195 4.2015 44.9912 3.69969 44.9912 3.10882C44.9912 2.51795 45.195 1.98873 45.6043 1.58626C46.0136 1.18549 46.5113 0.983398 47.0989 0.983398C47.6865 0.983398 48.2096 1.18378 48.6087 1.58626C49.0062 1.98873 49.2066 2.49568 49.2066 3.10882C49.2066 3.72195 49.0062 4.20321 48.6087 4.61425C48.2096 5.02701 47.7069 5.23253 47.0989 5.23253Z" fill="#231F20"/>
</g>
<defs>
<clipPath id="clip0_335_674">
<rect width="94" height="26" fill="white"/>
</clipPath>
</defs>
</svg>
