<?xml version="1.0" encoding="UTF-8"?>
<svg id="Layer_2" data-name="Layer 2" xmlns="http://www.w3.org/2000/svg" viewBox="0 0 460.65 95.84">
  <defs>
    <style>
      .cls-1 {
        fill: #231f20;
      }
    </style>
  </defs>
  <g id="Layer_1-2" data-name="Layer 1">
    <g>
      <g>
        <g id="_Radial_Repeat_" data-name="&amp;lt;Radial Repeat&amp;gt;">
          <g>
            <circle class="cls-1" cx="60.76" cy="79.87" r="2.07"/>
            <circle class="cls-1" cx="51.48" cy="86.7" r="3.32"/>
            <circle class="cls-1" cx="40.45" cy="90" r="4"/>
            <circle class="cls-1" cx="28.95" cy="89.37" r="4.23"/>
            <circle class="cls-1" cx="18.33" cy="84.89" r="4.01" transform="translate(-55.99 39.97) rotate(-46.66)"/>
            <circle class="cls-1" cx="9.86" cy="77.09" r="3.33"/>
            <circle class="cls-1" cx="4.53" cy="66.88" r="2.08"/>
          </g>
        </g>
        <g id="_Radial_Repeat_-2" data-name="&amp;lt;Radial Repeat&amp;gt;">
          <g>
            <circle class="cls-1" cx="34.39" cy="76.64" r="2.07"/>
            <circle class="cls-1" cx="23.27" cy="73.64" r="3.32"/>
            <circle class="cls-1" cx="13.81" cy="67.07" r="4"/>
            <circle class="cls-1" cx="7.13" cy="57.69" r="4.23"/>
            <circle class="cls-1" cx="4.01" cy="46.6" r="4.01" transform="translate(-42.76 46.73) rotate(-85.24)"/>
            <circle class="cls-1" cx="4.83" cy="35.11" r="3.33"/>
            <circle class="cls-1" cx="9.49" cy="24.58" r="2.08"/>
          </g>
        </g>
        <g id="_Radial_Repeat_-3" data-name="&amp;lt;Radial Repeat&amp;gt;">
          <g>
            <circle class="cls-1" cx="20.47" cy="54.01" r="2.07"/>
            <circle class="cls-1" cx="15.88" cy="43.44" r="3.32"/>
            <circle class="cls-1" cx="15.12" cy="31.95" r="4"/>
            <circle class="cls-1" cx="18.29" cy="20.88" r="4.23"/>
            <circle class="cls-1" cx="25.02" cy="11.53" r="4.01" transform="translate(-2.18 15.87) rotate(-33.81)"/>
            <circle class="cls-1" cx="34.51" cy="5" r="3.33"/>
            <circle class="cls-1" cx="45.65" cy="2.08" r="2.08"/>
          </g>
        </g>
        <g id="_Radial_Repeat_-4" data-name="&amp;lt;Radial Repeat&amp;gt;">
          <g>
            <circle class="cls-1" cx="53.27" cy="21.7" r="2.07"/>
            <circle class="cls-1" cx="64.59" cy="19.57" r="3.32"/>
            <circle class="cls-1" cx="75.97" cy="21.39" r="4"/>
            <circle class="cls-1" cx="86.06" cy="26.94" r="4.23"/>
            <circle class="cls-1" cx="93.67" cy="35.58" r="4.01" transform="translate(-6.53 35.84) rotate(-20.95)"/>
            <circle class="cls-1" cx="97.92" cy="46.29" r="3.33"/>
            <circle class="cls-1" cx="98.3" cy="57.8" r="2.08"/>
          </g>
        </g>
        <g id="_Radial_Repeat_-5" data-name="&amp;lt;Radial Repeat&amp;gt;">
          <g>
            <circle class="cls-1" cx="75.63" cy="36.05" r="2.07"/>
            <circle class="cls-1" cx="84.35" cy="43.58" r="3.32"/>
            <circle class="cls-1" cx="90.02" cy="53.6" r="4"/>
            <circle class="cls-1" cx="91.97" cy="64.95" r="4.23"/>
            <circle class="cls-1" cx="89.96" cy="76.29" r="4.01" transform="translate(-21.42 115.13) rotate(-59.52)"/>
            <circle class="cls-1" cx="84.24" cy="86.29" r="3.33"/>
            <circle class="cls-1" cx="75.47" cy="93.76" r="2.08"/>
          </g>
        </g>
      </g>
      <g>
        <g>
          <path class="cls-1" d="M159.15,82.11h-9.76v-48.61h-19.68v-9.76h50.03v9.76h-20.6v48.61Z"/>
          <path class="cls-1" d="M198.41,82.46h-10.58V23.55h8.9l-.09,28.06h2.04c1.21-9.37,7.24-13.46,14.2-14.02,20.51-1.67,19.58,21.07,19.58,21.07v23.79h-10.58v-20.08s1.21-15.41-10.3-14.85c0,0-13.37.28-13.37,14.29l.19,20.63Z"/>
          <path class="cls-1" d="M270.87,38.16c2.63.82,4.91,2,6.85,3.53,1.94,1.53,3.47,3.42,4.59,5.66,1.12,2.24,1.68,4.84,1.68,7.79v6.97h-34.04v2.87c0,1.48.33,2.86.98,4.14.66,1.29,1.55,2.41,2.67,3.36,1.12.96,2.43,1.72,3.94,2.3,1.5.57,3.13.86,4.88.86,2.41,0,4.41-.31,6.03-.94,1.61-.63,2.9-1.44,3.86-2.42.96-.98,1.64-2.02,2.05-3.12.41-1.09.67-2.13.78-3.12h8.78c-.49,5.74-2.46,10.12-5.91,13.12-3.45,3.01-8.64,4.51-15.59,4.51-2.19,0-4.54-.33-7.05-.98-2.52-.66-4.88-1.74-7.1-3.24-2.22-1.5-4.05-3.43-5.5-5.78-1.45-2.35-2.17-5.25-2.17-8.7v-8.78c0-3.77.7-6.92,2.09-9.43,1.4-2.51,3.18-4.48,5.37-5.91,2.19-1.42,4.55-2.43,7.1-3.03,2.54-.6,4.96-.9,7.26-.9,3.01,0,5.82.41,8.45,1.23ZM249.95,55.14h25.35c0-1.09-.22-2.23-.66-3.4-.44-1.18-1.14-2.26-2.09-3.24-.96-.98-2.27-1.8-3.94-2.46-1.67-.66-3.73-.98-6.19-.98-1.81,0-3.47.26-5,.78-1.53.52-2.84,1.24-3.94,2.17-1.09.93-1.96,1.94-2.58,3.03-.63,1.09-.94,2.24-.94,3.45v.66Z"/>
          <path class="cls-1" d="M335.1,47.26l-31.25,17.06c.54-.16,1.28-.4,2.21-.7.93-.3,1.97-.62,3.12-.94,1.15-.33,2.34-.67,3.57-1.03,1.23-.35,2.43-.67,3.61-.94,1.18-.27,2.27-.52,3.28-.74,1.01-.22,1.85-.33,2.5-.33,2.41-.16,4.57-.05,6.48.33,1.91.38,3.53,1.15,4.84,2.3,1.31,1.15,2.32,2.82,3.04,5,.71,2.19,1.07,5.06,1.07,8.61v6.56h-9.6v-6.56c0-2.24-.25-4.09-.74-5.54-.49-1.45-1.22-2.54-2.17-3.28-.96-.74-2.15-1.22-3.57-1.44-1.42-.22-3.12-.19-5.09.08-.66.06-1.46.15-2.42.29-.96.14-1.96.32-2.99.53-1.04.22-2.08.42-3.12.62-1.04.19-2,.4-2.87.62-.88.22-1.6.38-2.17.49-.57.11-.94.19-1.11.25l-.57.49.49,13.45h-9.51V23.39h9.51v34.13l33.47-19.36v9.11Z"/>
          <path class="cls-1" d="M378.09,38.69c2.65,1.12,4.77,2.61,6.36,4.47,1.58,1.86,2.69,3.98,3.32,6.36.63,2.38.94,4.8.94,7.26v25.68h-9.51l.74-8.53-.49-.82v-.25c-.27,1.64-.84,3.12-1.68,4.43-.85,1.31-1.95,2.43-3.32,3.36-1.37.93-2.99,1.65-4.88,2.17s-3.98.81-6.27.86h-.08c-1.75,0-3.68-.16-5.78-.49-2.11-.33-4.06-.96-5.86-1.89-1.8-.93-3.31-2.26-4.51-3.98-1.2-1.72-1.8-3.95-1.8-6.69,0-1.58.23-3.17.7-4.76.46-1.59,1.35-3.05,2.67-4.39,1.31-1.34,3.14-2.42,5.5-3.24,2.35-.82,5.39-1.23,9.11-1.23h16v-1.89c0-1.91-.32-3.54-.94-4.88-.63-1.34-1.48-2.43-2.54-3.28-1.07-.85-2.24-1.46-3.53-1.85-1.29-.38-2.64-.57-4.06-.57-1.2,0-2.45.14-3.73.41-1.29.27-2.45.75-3.49,1.44-1.04.68-1.89,1.63-2.54,2.83-.66,1.2-.99,2.71-.99,4.51h-9.43c0-2.35.4-4.54,1.19-6.56.79-2.02,2.01-3.8,3.65-5.33,1.64-1.53,3.74-2.72,6.32-3.57,2.57-.85,5.58-1.27,9.02-1.27,3.99,0,7.31.56,9.97,1.68ZM369.56,76.06c1.83-.44,3.35-1,4.55-1.68,1.2-.68,2.15-1.42,2.83-2.21.68-.79,1.19-1.56,1.52-2.3.33-.74.53-1.38.61-1.93.08-.55.12-.9.12-1.07v-2.87l-16-.33c-.82,0-1.74.07-2.75.2-1.01.14-1.94.41-2.79.82-.85.41-1.55,1.01-2.09,1.8-.55.79-.82,1.82-.82,3.08,0,1.15.21,2.15.62,2.99.41.85.94,1.59,1.6,2.21.66.63,1.48,1.11,2.46,1.44.98.33,2.1.49,3.36.49,2.68,0,4.93-.22,6.77-.66Z"/>
          <path class="cls-1" d="M429.86,38.69c2.65,1.12,4.77,2.61,6.36,4.47,1.58,1.86,2.69,3.98,3.32,6.36.63,2.38.94,4.8.94,7.26v25.68h-9.51l.74-8.53-.49-.82v-.25c-.27,1.64-.84,3.12-1.68,4.43-.85,1.31-1.95,2.43-3.32,3.36-1.37.93-2.99,1.65-4.88,2.17s-3.98.81-6.28.86h-.08c-1.75,0-3.68-.16-5.78-.49-2.11-.33-4.06-.96-5.86-1.89-1.8-.93-3.31-2.26-4.51-3.98-1.2-1.72-1.8-3.95-1.8-6.69,0-1.58.23-3.17.7-4.76.46-1.59,1.35-3.05,2.67-4.39,1.31-1.34,3.14-2.42,5.5-3.24,2.35-.82,5.39-1.23,9.11-1.23h16v-1.89c0-1.91-.32-3.54-.94-4.88-.63-1.34-1.48-2.43-2.54-3.28s-2.24-1.46-3.53-1.85c-1.29-.38-2.64-.57-4.06-.57-1.2,0-2.45.14-3.73.41-1.29.27-2.45.75-3.49,1.44-1.04.68-1.89,1.63-2.54,2.83-.66,1.2-.99,2.71-.99,4.51h-9.43c0-2.35.4-4.54,1.19-6.56.79-2.02,2.01-3.8,3.65-5.33,1.64-1.53,3.74-2.72,6.32-3.57,2.57-.85,5.58-1.27,9.02-1.27,3.99,0,7.31.56,9.97,1.68ZM421.33,76.06c1.83-.44,3.35-1,4.55-1.68,1.2-.68,2.15-1.42,2.83-2.21.68-.79,1.19-1.56,1.52-2.3.33-.74.53-1.38.61-1.93.08-.55.12-.9.12-1.07v-2.87l-16-.33c-.82,0-1.74.07-2.75.2-1.01.14-1.94.41-2.79.82-.85.41-1.55,1.01-2.09,1.8-.55.79-.82,1.82-.82,3.08,0,1.15.21,2.15.62,2.99.41.85.94,1.59,1.6,2.21.66.63,1.48,1.11,2.46,1.44.98.33,2.1.49,3.36.49,2.68,0,4.93-.22,6.77-.66Z"/>
        </g>
        <g>
          <path class="cls-1" d="M455.83,29.24c-.22-.25-.49-.44-.8-.58s-.66-.21-1.05-.21-.71.09-1.01.27c-.29.18-.52.43-.68.76-.16.33-.24.71-.24,1.14s.08.81.24,1.14c.16.33.39.58.68.77s.63.28,1.01.28c.41,0,.77-.07,1.1-.21s.6-.35.81-.64l1.07.87c-.31.43-.72.77-1.24,1.01-.52.24-1.13.36-1.81.36s-1.33-.15-1.86-.46c-.54-.3-.96-.72-1.26-1.26-.3-.53-.46-1.16-.46-1.87s.15-1.34.46-1.88c.3-.54.73-.96,1.26-1.26.54-.3,1.16-.46,1.86-.46.66,0,1.24.11,1.75.32.5.22.92.52,1.24.91l-1.06.98Z"/>
          <path class="cls-1" d="M453.64,37.63c-3.87,0-7.01-3.15-7.01-7.01s3.15-7.02,7.01-7.02,7.02,3.15,7.02,7.02-3.15,7.01-7.02,7.01ZM453.64,24.87c-3.17,0-5.75,2.58-5.75,5.75s2.58,5.75,5.75,5.75,5.75-2.58,5.75-5.75-2.58-5.75-5.75-5.75Z"/>
        </g>
      </g>
    </g>
  </g>
</svg>