<svg width="124" height="114" viewBox="0 0 124 114" fill="none" xmlns="http://www.w3.org/2000/svg">
<path fill-rule="evenodd" clip-rule="evenodd" d="M-9.66772 47C-9.66772 49.1734 -9.6678 54.7737 14.1356 66.7165L21.2353 99.6279C22.0167 103.27 23.8616 106.231 26.5876 108.217C33.855 113.411 43.6192 116.013 53.3952 116.013L53.3834 116.019C63.1653 116.019 72.953 113.411 80.238 108.199C82.9346 106.243 84.7734 103.276 85.5548 99.6336L92.6494 66.7416C94.9441 65.5908 97.018 64.4988 98.8924 63.4631V95.821C94.6565 103.635 92.4651 108.417 90.262 116.325C90.2209 116.472 90.1857 116.624 90.1622 116.777C89.6628 119.785 89.6217 123.592 93.8105 126.395C93.8236 126.405 93.8378 126.414 93.8526 126.423C93.8712 126.435 93.8908 126.446 93.9104 126.459C95.2851 127.323 96.9772 127.781 98.7925 127.781H107.717C109.702 127.781 111.436 127.293 112.869 126.324C112.91 126.3 112.945 126.271 112.981 126.248C117.052 123.31 116.899 119.415 116.429 116.742C116.412 116.625 116.382 116.507 116.353 116.39C114.508 109.34 112.152 104.358 107.705 95.8566V58.0495C116.498 51.8836 116.498 48.5595 116.498 47C116.498 44.7146 116.498 38.6399 88.8266 25.3859C76.1777 19.3287 60.327 13.2188 53.418 13.2188C46.509 13.2188 30.6582 19.3287 18.0093 25.3859C-9.66781 38.6399 -9.66772 44.7146 -9.66772 47ZM53.418 80.7812C47.5964 80.7812 35.4222 76.4433 24.1707 71.4542L29.8481 97.777C30.0714 98.8169 30.5826 100.233 31.74 101.079C43.2668 109.327 63.5354 109.327 75.0856 101.061C76.2136 100.244 76.719 98.8291 76.9422 97.7833L82.6154 71.4754C71.375 76.4556 59.2312 80.7812 53.418 80.7812ZM-0.496929 47C1.51232 49.3559 9.02078 54.6963 23.6554 61.5406C38.149 68.3145 49.8048 71.9688 53.418 71.9688C57.0311 71.9688 68.6812 68.3145 83.1748 61.5406C97.8094 54.6963 105.318 49.3559 107.327 47C105.318 44.6441 97.8094 39.3038 83.1748 32.4594C68.6812 25.6855 57.0252 22.0312 53.418 22.0312C49.8107 22.0312 38.1549 25.6855 23.6554 32.4594C9.0149 39.2979 1.51232 44.6441 -0.496929 47ZM98.7572 118.969C98.769 118.834 98.7866 118.663 98.8218 118.446C100.108 113.864 101.366 110.503 103.263 106.555C105.337 110.844 106.665 114.222 107.775 118.428C107.811 118.657 107.828 118.834 107.84 118.969H98.7572Z" fill="white"/>
</svg>
