<svg width="120" height="121" viewBox="0 0 120 121" fill="none" xmlns="http://www.w3.org/2000/svg">
<path d="M54.46 6.82324C46.6124 6.82324 39.2942 9.19851 33.1339 13.2832C31.2496 14.5326 30.7349 17.073 31.9844 18.9573C33.2338 20.8417 35.7742 21.3563 37.6585 20.1069C42.539 16.8708 48.2942 15.0107 54.46 15.0107C60.6558 15.0107 66.4372 16.889 71.333 20.1544C73.2139 21.409 75.7557 20.9012 77.0102 19.0203C78.2648 17.1394 77.757 14.5976 75.8761 13.343C69.6973 9.2218 62.346 6.82324 54.46 6.82324Z" fill="#161616"/>
<path d="M54.46 23.4416C50.4901 23.4416 46.763 24.5413 43.5533 26.4543C41.6112 27.6118 40.9751 30.1245 42.1326 32.0667C43.2901 34.0088 45.8029 34.6449 47.745 33.4874C49.738 32.2996 52.024 31.6291 54.46 31.6291C56.9221 31.6291 59.2313 32.314 61.2395 33.5261C63.1752 34.6943 65.6915 34.0722 66.8597 32.1365C68.028 30.2008 67.4058 27.6845 65.4701 26.5163C62.2373 24.5652 58.4729 23.4416 54.46 23.4416Z" fill="#161616"/>
<path fill-rule="evenodd" clip-rule="evenodd" d="M25.3262 35.42L25.6402 35.4754C39.5 37.9188 49.1622 42.5922 54.5 46.553C59.8378 42.5922 69.4999 37.9188 83.3597 35.4754L83.6738 35.42C87.562 34.7342 90.9719 34.1327 93.8428 34.1153C97.0358 34.0959 99.9466 34.7826 102.629 36.9105C105.434 39.1364 106.668 42.0415 107.219 45.3183C107.719 48.2913 107.719 52.0036 107.719 56.282L107.719 89.6491C107.719 93.6105 107.719 96.941 107.407 99.5931C107.079 102.37 106.354 105.016 104.437 107.213C102.476 109.461 99.6626 110.593 96.6978 111.409C93.7253 112.227 89.8168 112.916 84.995 113.766L84.7812 113.803C76.2314 115.311 69.6488 117.697 64.9798 120.03L64.8822 120.079C62.4862 121.276 60.5608 122.238 59.0858 122.895C58.3334 123.229 57.6034 123.528 56.9218 123.748C56.2825 123.954 55.4284 124.177 54.5 124.177C53.5715 124.177 52.7174 123.954 52.0781 123.748C51.3965 123.528 50.6665 123.229 49.9141 122.895C48.4391 122.238 46.5137 121.276 44.1176 120.079L44.0201 120.03C39.3511 117.697 32.7686 115.311 24.2187 113.803L24.0052 113.766C19.1833 112.916 15.2747 112.227 12.3021 111.409C9.33734 110.593 6.5242 109.461 4.56295 107.213C2.64594 105.016 1.9205 102.37 1.5934 99.5931C1.28097 96.9411 1.28108 93.6106 1.28122 89.6493L1.28121 56.2821C1.28088 52.0036 1.28059 48.2913 1.7805 45.3183C2.33151 42.0415 3.56592 39.1364 6.37137 36.9105C9.05332 34.7826 11.9642 34.0959 15.1571 34.1153C18.0281 34.1327 21.4379 34.7342 25.3262 35.42ZM15.1074 42.3027C13.2576 42.2914 12.3192 42.6429 11.4603 43.3244C10.7249 43.9079 10.1889 44.6884 9.85465 46.676C9.48219 48.891 9.46872 51.9069 9.46872 56.6129V89.4031C9.46872 93.676 9.47542 96.5195 9.72467 98.6351C9.9657 100.681 10.3765 101.422 10.732 101.83C11.0433 102.187 11.868 102.797 14.4745 103.515C17.0295 104.218 20.5541 104.844 25.6402 105.74C34.9303 107.378 42.2709 110.003 47.6798 112.706C48.7084 113.22 49.6108 113.67 50.4062 114.063L50.4062 53.7358C46.8137 50.8093 38.2408 46.0106 24.2187 43.5386C19.9225 42.7812 17.2022 42.3154 15.1074 42.3027ZM61.3202 112.706C60.2915 113.22 59.3891 113.67 58.5937 114.063L58.5937 53.7358C62.1861 50.8094 70.7591 46.0106 84.7812 43.5386C89.0775 42.7812 91.7977 42.3154 93.8925 42.3027C95.7424 42.2914 96.6808 42.6429 97.5397 43.3244C98.2751 43.9079 98.8111 44.6884 99.1453 46.676C99.5178 48.891 99.5312 51.9069 99.5312 56.6129V89.4031C99.5312 93.676 99.5245 96.5195 99.2753 98.6351C99.0342 100.681 98.6234 101.422 98.2679 101.83C97.9567 102.187 97.132 102.797 94.5255 103.515C91.9705 104.218 88.4459 104.844 83.3597 105.74C74.0696 107.378 66.729 110.003 61.3202 112.706Z" fill="#161616"/>
</svg>
