<?xml version="1.0" encoding="UTF-8"?>
<svg id="Layer_2" data-name="Layer 2" xmlns="http://www.w3.org/2000/svg" viewBox="0 0 151.22 143.14">
  <defs>
    <style>
      .cls-1 {
        fill: #231f20;
      }
    </style>
  </defs>
  <g id="Layer_1-2" data-name="Layer 1">
    <g>
      <g id="_Radial_Repeat_" data-name="&amp;lt;Radial Repeat&amp;gt;">
        <g>
          <circle class="cls-1" cx="90.74" cy="119.29" r="3.09"/>
          <circle class="cls-1" cx="76.89" cy="129.48" r="4.95" transform="translate(-58.56 63.67) rotate(-33.38)"/>
          <circle class="cls-1" cx="60.41" cy="134.41" r="5.98"/>
          <circle class="cls-1" cx="43.23" cy="133.47" r="6.31"/>
          <circle class="cls-1" cx="27.38" cy="126.78" r="5.99" transform="translate(-83.62 59.69) rotate(-46.66)"/>
          <circle class="cls-1" cx="14.73" cy="115.13" r="4.97"/>
          <circle class="cls-1" cx="6.76" cy="99.88" r="3.1"/>
        </g>
      </g>
      <g id="_Radial_Repeat_-2" data-name="&amp;lt;Radial Repeat&amp;gt;">
        <g>
          <circle class="cls-1" cx="51.36" cy="114.46" r="3.09"/>
          <circle class="cls-1" cx="34.75" cy="109.98" r="4.95" transform="translate(-80.59 108.95) rotate(-71.95)"/>
          <circle class="cls-1" cx="20.62" cy="100.17" r="5.98"/>
          <circle class="cls-1" cx="10.64" cy="86.16" r="6.31"/>
          <circle class="cls-1" cx="5.99" cy="69.6" r="5.99" transform="translate(-63.86 69.79) rotate(-85.24)"/>
          <circle class="cls-1" cx="7.21" cy="52.44" r="4.97"/>
          <circle class="cls-1" cx="14.17" cy="36.7" r="3.1"/>
        </g>
      </g>
      <g id="_Radial_Repeat_-3" data-name="&amp;lt;Radial Repeat&amp;gt;">
        <g>
          <circle class="cls-1" cx="30.58" cy="80.66" r="3.09"/>
          <circle class="cls-1" cx="23.72" cy="64.88" r="4.95" transform="translate(-21.24 12.43) rotate(-20.52)"/>
          <circle class="cls-1" cx="22.58" cy="47.72" r="5.98"/>
          <circle class="cls-1" cx="27.32" cy="31.18" r="6.31"/>
          <circle class="cls-1" cx="37.37" cy="17.22" r="5.99" transform="translate(-3.26 23.7) rotate(-33.81)"/>
          <circle class="cls-1" cx="51.54" cy="7.47" r="4.97"/>
          <circle class="cls-1" cx="68.18" cy="3.1" r="3.1"/>
        </g>
      </g>
      <g id="_Radial_Repeat_-4" data-name="&amp;lt;Radial Repeat&amp;gt;">
        <g>
          <circle class="cls-1" cx="79.56" cy="32.4" r="3.09"/>
          <circle class="cls-1" cx="96.47" cy="29.23" r="4.95" transform="translate(-3.04 13.13) rotate(-7.67)"/>
          <circle class="cls-1" cx="113.46" cy="31.94" r="5.98"/>
          <circle class="cls-1" cx="128.52" cy="40.24" r="6.31"/>
          <circle class="cls-1" cx="139.9" cy="53.14" r="5.99" transform="translate(-9.75 53.53) rotate(-20.95)"/>
          <circle class="cls-1" cx="146.25" cy="69.13" r="4.97"/>
          <circle class="cls-1" cx="146.8" cy="86.33" r="3.1"/>
        </g>
      </g>
      <g id="_Radial_Repeat_-5" data-name="&amp;lt;Radial Repeat&amp;gt;">
        <g>
          <circle class="cls-1" cx="112.95" cy="53.84" r="3.09"/>
          <circle class="cls-1" cx="125.97" cy="65.08" r="4.95" transform="translate(-8.16 111.05) rotate(-46.24)"/>
          <circle class="cls-1" cx="134.45" cy="80.05" r="5.98"/>
          <circle class="cls-1" cx="137.36" cy="97.01" r="6.31"/>
          <circle class="cls-1" cx="134.36" cy="113.94" r="5.99" transform="translate(-31.99 171.94) rotate(-59.52)"/>
          <circle class="cls-1" cx="125.82" cy="128.88" r="4.97"/>
          <circle class="cls-1" cx="112.72" cy="140.03" r="3.1"/>
        </g>
      </g>
    </g>
  </g>
</svg>