<svg width="405" height="378" viewBox="0 0 405 378" fill="none" xmlns="http://www.w3.org/2000/svg">
<path d="M240.811 323.051C245.313 323.051 248.963 319.401 248.963 314.899C248.963 310.397 245.313 306.747 240.811 306.747C236.309 306.747 232.659 310.397 232.659 314.899C232.659 319.401 236.309 323.051 240.811 323.051Z" fill="white" fill-opacity="0.15"/>
<path d="M211.411 352.742C217.438 348.771 219.105 340.665 215.133 334.638C211.162 328.61 203.056 326.943 197.029 330.915C191.001 334.886 189.335 342.992 193.306 349.019C197.277 355.047 205.383 356.714 211.411 352.742Z" fill="white" fill-opacity="0.15"/>
<path d="M175.457 360.482C178.559 352.334 174.467 343.214 166.319 340.112C158.17 337.01 149.05 341.101 145.948 349.25C142.846 357.398 146.938 366.518 155.086 369.62C163.235 372.722 172.355 368.631 175.457 360.482Z" fill="white" fill-opacity="0.15"/>
<path d="M127.152 364.145C133.658 357.64 133.658 347.092 127.152 340.587C120.647 334.081 110.099 334.081 103.594 340.587C97.0881 347.092 97.0881 357.64 103.594 364.145C110.099 370.651 120.647 370.651 127.152 364.145Z" fill="white" fill-opacity="0.15"/>
<path d="M85.0249 345.56C91.0202 339.207 90.7301 329.197 84.377 323.201C78.0239 317.206 68.0136 317.496 62.0183 323.849C56.0231 330.202 56.3132 340.213 62.6663 346.208C69.0194 352.203 79.0297 351.913 85.0249 345.56Z" fill="white" fill-opacity="0.15"/>
<path d="M40.4951 317.065C47.7428 316.855 53.4481 310.81 53.238 303.562C53.028 296.314 46.9822 290.609 39.7344 290.819C32.4866 291.029 26.7814 297.075 26.9915 304.323C27.2015 311.57 33.2473 317.276 40.4951 317.065Z" fill="white" fill-opacity="0.15"/>
<path d="M19.0985 271.88C23.6252 271.88 27.2948 268.21 27.2948 263.684C27.2948 259.157 23.6252 255.487 19.0985 255.487C14.5718 255.487 10.9023 259.157 10.9023 263.684C10.9023 268.21 14.5718 271.88 19.0985 271.88Z" fill="white" fill-opacity="0.15"/>
<path d="M136.83 310.322C141.332 310.322 144.982 306.672 144.982 302.17C144.982 297.667 141.332 294.018 136.83 294.018C132.327 294.018 128.678 297.667 128.678 302.17C128.678 306.672 132.327 310.322 136.83 310.322Z" fill="white" fill-opacity="0.15"/>
<path d="M105.412 294.414C107.648 287.551 103.898 280.174 97.0347 277.938C90.1717 275.701 82.7951 279.452 80.5585 286.315C78.322 293.178 82.0725 300.554 88.9354 302.791C95.7984 305.027 103.175 301.277 105.412 294.414Z" fill="white" fill-opacity="0.15"/>
<path d="M60.4748 279.503C68.7796 276.848 73.3595 267.963 70.7043 259.658C68.0491 251.353 59.1643 246.773 50.8595 249.429C42.5546 252.084 37.9747 260.969 40.6299 269.274C43.2851 277.578 52.17 282.158 60.4748 279.503Z" fill="white" fill-opacity="0.15"/>
<path d="M45.9445 228.806C46.7079 219.638 39.8944 211.587 30.7259 210.823C21.5575 210.06 13.5061 216.873 12.7427 226.042C11.9792 235.21 18.7928 243.261 27.9613 244.025C37.1297 244.788 45.181 237.975 45.9445 228.806Z" fill="white" fill-opacity="0.15"/>
<path d="M32.8364 185.029C33.5613 176.324 27.092 168.679 18.3869 167.954C9.68179 167.23 2.03726 173.699 1.31239 182.404C0.587517 191.109 7.0568 198.754 15.7619 199.479C24.4671 200.203 32.1116 193.734 32.8364 185.029Z" fill="white" fill-opacity="0.15"/>
<path d="M28.7681 148.457C34.303 143.773 34.9928 135.489 30.3089 129.954C25.6249 124.419 17.3409 123.729 11.806 128.413C6.27109 133.097 5.58129 141.381 10.2653 146.916C14.9492 152.451 23.2333 153.141 28.7681 148.457Z" fill="white" fill-opacity="0.15"/>
<path d="M38.6513 105.09C43.178 105.09 46.8476 101.42 46.8476 96.8935C46.8476 92.3669 43.178 88.6973 38.6513 88.6973C34.1247 88.6973 30.4551 92.3669 30.4551 96.8935C30.4551 101.42 34.1247 105.09 38.6513 105.09Z" fill="white" fill-opacity="0.15"/>
<path d="M81.9654 221.092C86.4676 221.092 90.1174 217.442 90.1174 212.94C90.1174 208.438 86.4676 204.788 81.9654 204.788C77.4632 204.788 73.8134 208.438 73.8134 212.94C73.8134 217.442 77.4632 221.092 81.9654 221.092Z" fill="white" fill-opacity="0.15"/>
<path d="M68.4337 183.532C75.1939 181.002 78.623 173.471 76.0928 166.71C73.5625 159.95 66.0312 156.521 59.2709 159.051C52.5107 161.582 49.0817 169.113 51.6119 175.873C54.1421 182.633 61.6735 186.063 68.4337 183.532Z" fill="white" fill-opacity="0.15"/>
<path d="M73.9933 134.708C78.8297 127.453 76.8694 117.651 69.6148 112.815C62.3602 107.979 52.5585 109.939 47.7221 117.193C42.8857 124.448 44.8461 134.25 52.1007 139.086C59.3553 143.923 69.1569 141.962 73.9933 134.708Z" fill="white" fill-opacity="0.15"/>
<path d="M82.6222 96.1474C90.2665 91.0281 92.3134 80.6811 87.1941 73.0368C82.0747 65.3925 71.7278 63.3456 64.0835 68.465C56.4392 73.5843 54.3923 83.9313 59.5116 91.5756C64.631 99.2199 74.978 101.267 82.6222 96.1474Z" fill="white" fill-opacity="0.15"/>
<path d="M108.696 58.59C115.954 53.7294 117.897 43.9053 113.037 36.6472C108.176 29.3892 98.352 27.4458 91.0939 32.3064C83.8359 37.1671 81.8925 46.9912 86.7531 54.2492C91.6138 61.5072 101.438 63.4507 108.696 58.59Z" fill="white" fill-opacity="0.15"/>
<path d="M150.191 22.2692C151.598 15.1562 146.972 8.24926 139.859 6.84215C132.746 5.43503 125.84 10.0605 124.432 17.1735C123.025 24.2865 127.651 31.1934 134.764 32.6005C141.877 34.0077 148.784 29.3821 150.191 22.2692Z" fill="white" fill-opacity="0.15"/>
<path d="M181.236 16.3925C185.763 16.3925 189.432 12.7229 189.432 8.19627C189.432 3.66959 185.763 0 181.236 0C176.709 0 173.04 3.66959 173.04 8.19627C173.04 12.7229 176.709 16.3925 181.236 16.3925Z" fill="white" fill-opacity="0.15"/>
<path d="M211.275 93.7024C215.777 93.7024 219.427 90.0526 219.427 85.5504C219.427 81.0482 215.777 77.3984 211.275 77.3984C206.773 77.3984 203.123 81.0482 203.123 85.5504C203.123 90.0526 206.773 93.7024 211.275 93.7024Z" fill="white" fill-opacity="0.15"/>
<path d="M257.664 90.0958C264.818 89.1324 269.836 82.5522 268.873 75.3986C267.909 68.245 261.329 63.2268 254.176 64.1902C247.022 65.1536 242.004 71.7337 242.967 78.8874C243.931 86.041 250.511 91.0592 257.664 90.0958Z" fill="white" fill-opacity="0.15"/>
<path d="M311.617 95.7817C317.947 89.7855 318.218 79.7933 312.221 73.4636C306.225 67.1339 296.233 66.8635 289.903 72.8597C283.573 78.8559 283.303 88.8481 289.299 95.1778C295.296 101.508 305.288 101.778 311.617 95.7817Z" fill="white" fill-opacity="0.15"/>
<path d="M346.497 121.779C355.089 118.49 359.387 108.858 356.098 100.266C352.808 91.6738 343.176 87.3753 334.584 90.6648C325.993 93.9544 321.694 103.586 324.984 112.178C328.273 120.77 337.905 125.069 346.497 121.779Z" fill="white" fill-opacity="0.15"/>
<path d="M376.227 155.071C384.385 151.948 388.466 142.803 385.343 134.645C382.219 126.487 373.074 122.406 364.917 125.529C356.759 128.653 352.677 137.798 355.801 145.956C358.924 154.113 368.069 158.195 376.227 155.071Z" fill="white" fill-opacity="0.15"/>
<path d="M399.319 187.85C402.274 181.229 399.302 173.466 392.68 170.511C386.059 167.556 378.296 170.528 375.341 177.15C372.386 183.771 375.358 191.534 381.98 194.489C388.601 197.444 396.364 194.472 399.319 187.85Z" fill="white" fill-opacity="0.15"/>
<path d="M388.802 236.097C393.329 236.097 396.998 232.427 396.998 227.9C396.998 223.374 393.329 219.704 388.802 219.704C384.275 219.704 380.606 223.374 380.606 227.9C380.606 232.427 384.275 236.097 388.802 236.097Z" fill="white" fill-opacity="0.15"/>
<path d="M299.424 150.28C303.927 150.28 307.576 146.631 307.576 142.129C307.576 137.626 303.927 133.977 299.424 133.977C294.922 133.977 291.272 137.626 291.272 142.129C291.272 146.631 294.922 150.28 299.424 150.28Z" fill="white" fill-opacity="0.15"/>
<path d="M343.239 180.843C348.231 175.629 348.052 167.356 342.839 162.364C337.626 157.371 329.352 157.55 324.36 162.764C319.367 167.977 319.547 176.25 324.76 181.243C329.973 186.235 338.246 186.056 343.239 180.843Z" fill="white" fill-opacity="0.15"/>
<path d="M371.813 213.528C373.023 204.894 367.005 196.913 358.37 195.703C349.736 194.492 341.755 200.511 340.544 209.145C339.334 217.78 345.352 225.761 353.987 226.971C362.621 228.181 370.602 222.163 371.813 213.528Z" fill="white" fill-opacity="0.15"/>
<path d="M378.218 264.547C382.885 256.618 380.24 246.408 372.311 241.741C364.383 237.074 354.172 239.719 349.505 247.648C344.839 255.576 347.483 265.787 355.412 270.454C363.341 275.12 373.551 272.476 378.218 264.547Z" fill="white" fill-opacity="0.15"/>
<path d="M369.572 308.835C374.003 301.307 371.493 291.612 363.964 287.181C356.436 282.75 346.742 285.261 342.311 292.789C337.88 300.317 340.391 310.012 347.919 314.443C355.447 318.874 365.142 316.363 369.572 308.835Z" fill="white" fill-opacity="0.15"/>
<path d="M336.679 352.941C343.698 351.123 347.914 343.959 346.097 336.94C344.279 329.92 337.115 325.704 330.095 327.522C323.076 329.34 318.86 336.504 320.678 343.523C322.496 350.542 329.659 354.759 336.679 352.941Z" fill="white" fill-opacity="0.15"/>
<path d="M298.819 377.87C303.346 377.87 307.016 374.2 307.016 369.674C307.016 365.147 303.346 361.478 298.819 361.478C294.293 361.478 290.623 365.147 290.623 369.674C290.623 374.2 294.293 377.87 298.819 377.87Z" fill="white" fill-opacity="0.15"/>
</svg>
