<svg width="142" height="139" viewBox="0 0 142 139" fill="none" xmlns="http://www.w3.org/2000/svg">
<path fill-rule="evenodd" clip-rule="evenodd" d="M117.391 107.882L125.629 129.6C126.003 130.598 127.252 130.349 127.501 129.6L131.246 120.987C131.371 120.738 131.495 120.488 131.745 120.363L140.482 116.619C141.231 116.369 141.481 115.121 140.482 114.747L118.639 106.509C117.89 106.259 117.141 107.008 117.391 107.882Z" fill="#F7AEF3"/>
<path d="M111.399 99.1451C111.025 98.7706 110.401 98.7706 109.902 99.1451C109.527 99.5195 109.527 100.268 109.902 100.643L114.145 104.762C114.52 105.261 115.269 105.261 115.643 104.762C116.018 104.387 116.018 103.763 115.643 103.264L111.399 99.1451Z" fill="#F7AEF3"/>
<path d="M120.012 96.7731C119.762 96.2738 119.263 95.8994 118.639 96.0242C118.14 96.2738 117.765 96.7731 117.89 97.3972L119.014 101.267C119.138 101.891 119.762 102.14 120.262 102.015C120.886 101.891 121.135 101.267 121.011 100.767L120.012 96.7731Z" fill="#F7AEF3"/>
<path d="M108.28 107.258C107.78 107.008 107.156 107.383 107.032 108.007C106.907 108.506 107.156 109.13 107.78 109.255L111.65 110.253C112.274 110.503 112.773 110.129 113.023 109.505C113.148 109.005 112.773 108.381 112.274 108.256L108.28 107.258Z" fill="#F7AEF3"/>
<rect x="16" width="108" height="108" rx="52" fill="#F7AEF3"/>
<path fill-rule="evenodd" clip-rule="evenodd" d="M41.8023 26.7541C42.1763 26.0227 42.9285 25.5625 43.75 25.5625H58.3333C59.0358 25.5625 59.6954 25.8998 60.1067 26.4692L74.5033 46.4031L94.7032 26.2032C95.5575 25.3489 96.9425 25.3489 97.7968 26.2032C98.6511 27.0575 98.6511 28.4425 97.7968 29.2968L77.098 49.9956L98.0234 78.9692C98.5043 79.6352 98.5717 80.5145 98.1977 81.2459C97.8237 81.9773 97.0715 82.4375 96.25 82.4375H81.6667C80.9643 82.4375 80.3046 82.1002 79.8933 81.5308L65.4967 61.5969L45.2968 81.7968C44.4425 82.6511 43.0575 82.6511 42.2032 81.7968C41.3489 80.9425 41.3489 79.5575 42.2032 78.7032L62.902 58.0044L41.9766 29.0308C41.4957 28.3648 41.4284 27.4855 41.8023 26.7541ZM48.0282 29.9375L82.7852 78.0625H91.9718L57.2148 29.9375H48.0282Z" fill="#161616"/>
</svg>
